<svg xmlns="http://www.w3.org/2000/svg" width="773.602" height="773.6" viewBox="0 0 773.602 773.6">
  <path id="syringe_1_" data-name="syringe (1)" d="M772.6,158.467a25.545,25.545,0,1,1-36.126,36.126L718.4,176.519l-90.3,90.3,72.251,72.253A25.544,25.544,0,1,1,664.223,375.2l-36.117-36.12L321.029,646.163a127.75,127.75,0,0,1-136.982,28.614l-25.578,25.578a51.066,51.066,0,0,1-49.37,13.226L50.086,772.6A25.544,25.544,0,0,1,13.962,736.47l59.022-59.024A51.074,51.074,0,0,1,86.217,628.1l25.576-25.576A127.765,127.765,0,0,1,140.4,465.532L447.478,158.449l-36.133-36.133A25.544,25.544,0,0,1,447.469,86.19l72.253,72.253,90.3-90.3-18.05-18.052A25.544,25.544,0,0,1,628.1,13.961Zm-221.656,31.2,90.3-90.3L687.179,145.3l-90.3,90.3Zm-72.244.007L596.885,307.86l-97.27,97.272L381.429,286.942ZM463.49,441.259,409.3,495.448l-41.034-41.034A25.545,25.545,0,0,0,332.14,490.54l41.034,41.034-36.115,36.118-41.038-41.038a25.545,25.545,0,1,0-36.126,36.126l41.038,41.038-11.124,11.124a83.589,83.589,0,0,1-89.671,18.7l-47.218-47.218a83.591,83.591,0,0,1,18.7-89.673L345.3,323.069ZM116.826,660.025a6.771,6.771,0,0,1,.611-.7l18.193-18.2q2.3,2.566,4.771,5.034t5.04,4.777l-18.193,18.193a7.39,7.39,0,0,1-.706.616,25.687,25.687,0,0,0-9.716-9.725Z" transform="translate(-6.479 -6.479)" fill="rgba(230,115,0,0.08)" fill-rule="evenodd"/>
</svg>
